<svg width="1234" height="281" viewBox="0 0 1234 281" fill="none" xmlns="http://www.w3.org/2000/svg">
<rect x="550.5" width="131" height="87" rx="15" fill="#E50035"/>
<path d="M573.171 69.5L595.137 19.2513H611.791L633.757 69.5H616.241L600.018 27.2911H606.622L590.399 69.5H573.171ZM586.236 60.7424L590.543 48.5391H613.657L617.964 60.7424H586.236ZM636.46 69.5V19.2513H653.401V69.5H636.46Z" fill="#FDFDFD"/>
<g filter="url(#filter0_d_1_191)">
<path d="M7.296 230V140.4H32.128L67.968 198.896H54.912L89.728 140.4H114.56L114.816 230H87.296L87.04 181.872H91.392L67.584 221.936H54.272L29.44 181.872H34.816V230H7.296Z" fill="#E50035"/>
<path d="M162.829 231.536C157.389 231.536 152.333 230.672 147.661 228.944C143.053 227.216 139.053 224.784 135.661 221.648C132.269 218.448 129.613 214.704 127.693 210.416C125.837 206.128 124.909 201.456 124.909 196.4C124.909 191.28 125.837 186.608 127.693 182.384C129.613 178.096 132.269 174.384 135.661 171.248C139.053 168.048 143.053 165.584 147.661 163.856C152.333 162.128 157.389 161.264 162.829 161.264C168.333 161.264 173.389 162.128 177.997 163.856C182.605 165.584 186.605 168.048 189.997 171.248C193.389 174.384 196.013 178.096 197.869 182.384C199.789 186.608 200.749 191.28 200.749 196.4C200.749 201.456 199.789 206.128 197.869 210.416C196.013 214.704 193.389 218.448 189.997 221.648C186.605 224.784 182.605 227.216 177.997 228.944C173.389 230.672 168.333 231.536 162.829 231.536ZM162.829 213.2C164.941 213.2 166.893 212.816 168.685 212.048C170.541 211.28 172.141 210.192 173.485 208.784C174.893 207.312 175.981 205.552 176.749 203.504C177.517 201.392 177.901 199.024 177.901 196.4C177.901 193.776 177.517 191.44 176.749 189.392C175.981 187.28 174.893 185.52 173.485 184.112C172.141 182.64 170.541 181.52 168.685 180.752C166.893 179.984 164.941 179.6 162.829 179.6C160.717 179.6 158.733 179.984 156.877 180.752C155.085 181.52 153.485 182.64 152.077 184.112C150.733 185.52 149.677 187.28 148.909 189.392C148.141 191.44 147.757 193.776 147.757 196.4C147.757 199.024 148.141 201.392 148.909 203.504C149.677 205.552 150.733 207.312 152.077 208.784C153.485 210.192 155.085 211.28 156.877 212.048C158.733 212.816 160.717 213.2 162.829 213.2ZM208.972 230V162.8H227.596L261.772 203.696H253.132V162.8H275.212V230H256.588L222.412 189.104H231.052V230H208.972ZM311.184 231.536C305.552 231.536 300.112 230.896 294.864 229.616C289.616 228.336 285.296 226.672 281.904 224.624L289.2 208.112C292.4 209.968 295.952 211.472 299.856 212.624C303.824 213.712 307.664 214.256 311.376 214.256C313.552 214.256 315.248 214.128 316.464 213.872C317.744 213.552 318.672 213.136 319.248 212.624C319.824 212.048 320.112 211.376 320.112 210.608C320.112 209.392 319.44 208.432 318.096 207.728C316.752 207.024 314.96 206.448 312.72 206C310.544 205.488 308.144 204.976 305.52 204.464C302.896 203.888 300.24 203.152 297.552 202.256C294.928 201.36 292.496 200.176 290.256 198.704C288.08 197.232 286.32 195.312 284.976 192.944C283.632 190.512 282.96 187.504 282.96 183.92C282.96 179.76 284.112 175.984 286.416 172.592C288.784 169.136 292.272 166.384 296.88 164.336C301.552 162.288 307.344 161.264 314.256 161.264C318.8 161.264 323.28 161.744 327.696 162.704C332.112 163.664 336.08 165.136 339.6 167.12L332.784 183.536C329.456 181.872 326.224 180.624 323.088 179.792C320.016 178.96 317.008 178.544 314.064 178.544C311.888 178.544 310.16 178.736 308.88 179.12C307.6 179.504 306.672 180.016 306.096 180.656C305.584 181.296 305.328 182 305.328 182.768C305.328 183.92 306 184.848 307.344 185.552C308.688 186.192 310.448 186.736 312.624 187.184C314.864 187.632 317.296 188.112 319.92 188.624C322.608 189.136 325.264 189.84 327.888 190.736C330.512 191.632 332.912 192.816 335.088 194.288C337.328 195.76 339.12 197.68 340.464 200.048C341.808 202.416 342.48 205.36 342.48 208.88C342.48 212.976 341.296 216.752 338.928 220.208C336.624 223.6 333.168 226.352 328.56 228.464C323.952 230.512 318.16 231.536 311.184 231.536ZM362.877 230V180.368H343.197V162.8H405.213V180.368H385.533V230H362.877ZM431.833 187.76H461.785V204.08H431.833V187.76ZM433.369 212.912H466.969V230H411.097V162.8H465.721V179.888H433.369V212.912ZM475.691 230V162.8H508.043C514.315 162.8 519.723 163.824 524.267 165.872C528.875 167.92 532.427 170.864 534.923 174.704C537.419 178.48 538.667 182.96 538.667 188.144C538.667 193.328 537.419 197.808 534.923 201.584C532.427 205.296 528.875 208.144 524.267 210.128C519.723 212.112 514.315 213.104 508.043 213.104H488.267L498.347 203.792V230H475.691ZM515.915 230L499.403 205.52H523.403L540.107 230H515.915ZM498.347 206.288L488.267 196.016H506.603C509.739 196.016 512.043 195.312 513.515 193.904C515.051 192.496 515.819 190.576 515.819 188.144C515.819 185.712 515.051 183.792 513.515 182.384C512.043 180.976 509.739 180.272 506.603 180.272H488.267L498.347 170V206.288Z" fill="white"/>
<path d="M627.782 267.514L626.834 269.338L625.126 267.638C624.835 267.498 624.558 267.38 624.245 267.247C623.966 267.128 623.659 266.997 623.288 266.828C622.51 266.473 621.575 265.99 620.782 265.231C615.709 260.39 610.777 255.417 605.872 250.45C603.313 247.86 603.081 244.651 604.144 241.617C608.539 228.996 612.028 216.133 614.621 203.029C616.586 193.08 617.976 183.084 618.494 172.992L627.782 267.514ZM627.782 267.514C629.695 267.232 631.262 266.273 632.554 264.986L632.556 264.984C637.295 260.246 642.049 255.508 646.802 250.785C648.002 249.593 648.849 248.211 649.219 246.646C649.591 245.08 649.452 243.471 648.904 241.881L648.904 241.879C644.521 229.187 640.981 216.28 638.375 203.121C636.418 193.234 635.055 183.275 634.472 173.236C634.422 172.334 634.685 171.95 634.835 171.812C634.972 171.686 635.327 171.477 636.136 171.624C645.23 173.273 653.527 176.289 660.531 182.167L660.531 182.167C663.672 184.803 668.284 184.654 671.24 181.794L671.241 181.792C675.757 177.414 680.224 172.976 684.62 168.472L684.621 168.471C687.864 165.144 687.749 160.339 684.534 157.079C680.236 152.709 675.896 148.391 671.53 144.104C669.971 142.572 668.066 141.669 666.032 141.581C663.996 141.492 662.02 142.226 660.336 143.629L660.334 143.63C653.534 149.307 645.481 152.259 636.67 153.908C635.852 154.059 635.472 153.832 635.327 153.691C635.181 153.547 634.94 153.164 635.069 152.326L635.069 152.326C636.554 142.69 639.624 133.893 645.825 126.438C648.626 123.083 648.437 118.613 645.39 115.519C641.057 111.114 636.678 106.75 632.241 102.442L632.24 102.441C630.604 100.856 628.578 99.9915 626.467 100C624.359 100.009 622.336 100.888 620.703 102.48C620.702 102.481 620.702 102.481 620.702 102.481L622.098 103.913L627.782 267.514ZM661.816 180.635C664.176 182.616 667.633 182.501 669.849 180.357C674.353 175.989 678.807 171.564 683.189 167.075C685.649 164.552 685.584 160.992 683.11 158.483L661.816 180.635ZM661.816 180.635C654.458 174.459 645.794 171.343 636.492 169.656L661.816 180.635ZM616.909 171.61L616.907 171.61C607.87 173.231 599.607 176.213 592.624 182.023L592.623 182.023C590.934 183.428 588.942 184.134 586.906 184.028C584.877 183.921 582.968 183.015 581.416 181.49L581.415 181.49C577.129 177.275 572.862 173.036 568.63 168.761C566.958 167.073 566.005 165.007 566 162.819C565.995 160.63 566.94 158.56 568.615 156.869L616.909 171.61ZM616.909 171.61C617.612 171.483 617.976 171.668 618.139 171.812M616.909 171.61L618.139 171.812M618.139 171.812C618.304 171.957 618.53 172.293 618.494 172.992L618.139 171.812ZM586.866 141.592C588.901 141.48 590.9 142.182 592.595 143.592C599.407 149.259 607.449 152.239 616.25 153.901L586.866 141.592ZM586.866 141.592C584.837 141.703 582.933 142.612 581.391 144.135L586.866 141.592ZM581.39 144.136C577.113 148.356 572.847 152.594 568.616 156.868L581.39 144.136Z" fill="#E50035" stroke="#FFDF00" stroke-width="4"/>
<path d="M764.632 232.048C757.464 232.048 750.808 230.939 744.664 228.72C738.605 226.416 733.315 223.173 728.792 218.992C724.355 214.811 720.899 209.861 718.424 204.144C715.949 198.427 714.712 192.112 714.712 185.2C714.712 178.288 715.949 171.973 718.424 166.256C720.899 160.539 724.355 155.589 728.792 151.408C733.315 147.227 738.605 144.027 744.664 141.808C750.808 139.504 757.464 138.352 764.632 138.352C773.421 138.352 781.187 139.888 787.928 142.96C794.755 146.032 800.387 150.469 804.824 156.272L785.752 173.296C783.107 169.968 780.163 167.408 776.92 165.616C773.763 163.739 770.179 162.8 766.168 162.8C763.011 162.8 760.152 163.312 757.592 164.336C755.032 165.36 752.813 166.853 750.936 168.816C749.144 170.779 747.736 173.168 746.712 175.984C745.688 178.715 745.176 181.787 745.176 185.2C745.176 188.613 745.688 191.728 746.712 194.544C747.736 197.275 749.144 199.621 750.936 201.584C752.813 203.547 755.032 205.04 757.592 206.064C760.152 207.088 763.011 207.6 766.168 207.6C770.179 207.6 773.763 206.704 776.92 204.912C780.163 203.035 783.107 200.432 785.752 197.104L804.824 214.128C800.387 219.845 794.755 224.283 787.928 227.44C781.187 230.512 773.421 232.048 764.632 232.048Z" fill="#FFDF00"/>
<path d="M811.722 230V162.8H844.074C850.346 162.8 855.754 163.824 860.298 165.872C864.906 167.92 868.458 170.864 870.954 174.704C873.45 178.48 874.698 182.96 874.698 188.144C874.698 193.328 873.45 197.808 870.954 201.584C868.458 205.296 864.906 208.144 860.298 210.128C855.754 212.112 850.346 213.104 844.074 213.104H824.298L834.378 203.792V230H811.722ZM851.946 230L835.434 205.52H859.434L876.138 230H851.946ZM834.378 206.288L824.298 196.016H842.634C845.77 196.016 848.074 195.312 849.546 193.904C851.082 192.496 851.85 190.576 851.85 188.144C851.85 185.712 851.082 183.792 849.546 182.384C848.074 180.976 845.77 180.272 842.634 180.272H824.298L834.378 170V206.288ZM903.989 187.76H933.941V204.08H903.989V187.76ZM905.525 212.912H939.125V230H883.253V162.8H937.877V179.888H905.525V212.912ZM940.551 230L969.927 162.8H992.199L1021.58 230H998.151L976.455 173.552H985.287L963.591 230H940.551ZM958.023 218.288L963.783 201.968H994.695L1000.46 218.288H958.023ZM1036.41 230V180.368H1016.73V162.8H1078.74V180.368H1059.06V230H1036.41ZM1118.92 231.536C1113.48 231.536 1108.43 230.672 1103.75 228.944C1099.15 227.216 1095.15 224.784 1091.75 221.648C1088.36 218.448 1085.71 214.704 1083.79 210.416C1081.93 206.128 1081 201.456 1081 196.4C1081 191.28 1081.93 186.608 1083.79 182.384C1085.71 178.096 1088.36 174.384 1091.75 171.248C1095.15 168.048 1099.15 165.584 1103.75 163.856C1108.43 162.128 1113.48 161.264 1118.92 161.264C1124.43 161.264 1129.48 162.128 1134.09 163.856C1138.7 165.584 1142.7 168.048 1146.09 171.248C1149.48 174.384 1152.11 178.096 1153.96 182.384C1155.88 186.608 1156.84 191.28 1156.84 196.4C1156.84 201.456 1155.88 206.128 1153.96 210.416C1152.11 214.704 1149.48 218.448 1146.09 221.648C1142.7 224.784 1138.7 227.216 1134.09 228.944C1129.48 230.672 1124.43 231.536 1118.92 231.536ZM1118.92 213.2C1121.03 213.2 1122.99 212.816 1124.78 212.048C1126.63 211.28 1128.23 210.192 1129.58 208.784C1130.99 207.312 1132.07 205.552 1132.84 203.504C1133.61 201.392 1133.99 199.024 1133.99 196.4C1133.99 193.776 1133.61 191.44 1132.84 189.392C1132.07 187.28 1130.99 185.52 1129.58 184.112C1128.23 182.64 1126.63 181.52 1124.78 180.752C1122.99 179.984 1121.03 179.6 1118.92 179.6C1116.81 179.6 1114.83 179.984 1112.97 180.752C1111.18 181.52 1109.58 182.64 1108.17 184.112C1106.83 185.52 1105.77 187.28 1105 189.392C1104.23 191.44 1103.85 193.776 1103.85 196.4C1103.85 199.024 1104.23 201.392 1105 203.504C1105.77 205.552 1106.83 207.312 1108.17 208.784C1109.58 210.192 1111.18 211.28 1112.97 212.048C1114.83 212.816 1116.81 213.2 1118.92 213.2ZM1165.07 230V162.8H1197.42C1203.69 162.8 1209.1 163.824 1213.64 165.872C1218.25 167.92 1221.8 170.864 1224.3 174.704C1226.79 178.48 1228.04 182.96 1228.04 188.144C1228.04 193.328 1226.79 197.808 1224.3 201.584C1221.8 205.296 1218.25 208.144 1213.64 210.128C1209.1 212.112 1203.69 213.104 1197.42 213.104H1177.64L1187.72 203.792V230H1165.07ZM1205.29 230L1188.78 205.52H1212.78L1229.48 230H1205.29ZM1187.72 206.288L1177.64 196.016H1195.98C1199.11 196.016 1201.42 195.312 1202.89 193.904C1204.43 192.496 1205.19 190.576 1205.19 188.144C1205.19 185.712 1204.43 183.792 1202.89 182.384C1201.42 180.976 1199.11 180.272 1195.98 180.272H1177.64L1187.72 170V206.288Z" fill="white"/>
</g>
<defs>
<filter id="filter0_d_1_191" x="-4" y="98" width="1240" height="182.679" filterUnits="userSpaceOnUse" color-interpolation-filters="sRGB">
<feFlood flood-opacity="0" result="BackgroundImageFix"/>
<feColorMatrix in="SourceAlpha" type="matrix" values="0 0 0 0 0 0 0 0 0 0 0 0 0 0 0 0 0 0 127 0" result="hardAlpha"/>
<feOffset dy="4"/>
<feGaussianBlur stdDeviation="2"/>
<feComposite in2="hardAlpha" operator="out"/>
<feColorMatrix type="matrix" values="0 0 0 0 0 0 0 0 0 0 0 0 0 0 0 0 0 0 0.25 0"/>
<feBlend mode="normal" in2="BackgroundImageFix" result="effect1_dropShadow_1_191"/>
<feBlend mode="normal" in="SourceGraphic" in2="effect1_dropShadow_1_191" result="shape"/>
</filter>
</defs>
</svg>
